<svg id="Capa_1" data-name="Capa 1" xmlns="http://www.w3.org/2000/svg" viewBox="0 0 200 200"><title>Mesa de trabajo 2 copia 2iconos</title><path d="M191.9,41.55c-19.46-31.2-61-36.19-87.25-10.21-3.77,3.74-5.68,3.72-9.27-.08A51.14,51.14,0,0,0,57.23,14.8c-4.75.2-8-.06-11.3.68C23.94,20.42,8.67,33.23,2.61,55-3.68,77.6,1.3,98.07,18.55,114.57c22.8,21.8,46,43.23,68.93,64.84,8.29,7.8,16.58,8,24.83.29q35-32.68,69.76-65.5C201.46,95.88,205.73,63.73,191.9,41.55Zm-13.19,49.5c-5.11,7.41-12.36,12.69-18.81,18.74-19.43,18.21-39,36.27-58.72,54.59-1.75-1.86-1.18-3.5-1.19-5,0-29,.05-58-.09-87a11.74,11.74,0,0,1,3.93-9.3c6.54-6.29,12.73-12.94,19.14-19.37C137.64,29,158.32,27,172.5,39,187.5,51.72,190.2,74.39,178.71,91.05Z"/></svg>