<svg id="Capa_1" data-name="Capa 1" xmlns="http://www.w3.org/2000/svg" viewBox="0 0 200 200"><title>Mesa de trabajo 2 copia 5iconos</title><path d="M199.18,175c-2.6-10.62-5.28-21.22-7.94-31.83-6.49-25.92-12.9-51.87-19.52-77.75-2.64-10.36-9.17-15.21-19.55-15.25q-6.78,0-13.56,0c-2.3,0-3.15-.86-2.39-3.2,1.41-4.4,1.09-9,.76-13.47A36.2,36.2,0,0,0,98.15.09C73.45,1.77,58.83,22.31,64,46.58c.63,3-.14,3.69-2.89,3.62-4.35-.12-8.7,0-13,0-10.62,0-17.19,5.1-19.83,15.57Q14.43,120.81.71,175.88C-2.6,189.21,5.94,200,19.65,200q40.16,0,80.33,0h79.81C194.57,200,202.72,189.52,199.18,175ZM100.24,54.35c-9.85.12-16.87-7-16.81-17.13.06-10.38,6.65-16.77,17.09-16.58,9.84.19,16.33,6.91,16.3,16.87C116.79,47.09,109.76,54.23,100.24,54.35Z"/></svg>