<svg id="Capa_1" data-name="Capa 1" xmlns="http://www.w3.org/2000/svg" viewBox="0 0 200 200"><defs><style>.cls-1{fill:#fff;stroke:#f7f7f7;stroke-miterlimit:10;}</style></defs><title>Mesa de trabajo 2 copia 6iconos</title><path class="cls-1" d="M49.26,0a.89.89,0,0,1,1,.9c4.08,23,17.64,43.44,44.1,48,0,0,1.19.26,1.19.73s-1.14.85-1.14.85c-22.73,6-39,20.76-43.07,43.71,0,0-.67,2.75-2,2.75s-1.69-2.85-1.69-2.85c-4.09-23-19.54-37.87-43.72-44.55,0,0-1.18-.34-1.17-.7,0-.62,1.17-.84,1.17-.84C29.92,43.72,42.8,22.07,48.28.9A.88.88,0,0,1,49.26,0Z"/><path class="cls-1" d="M151,51a.88.88,0,0,1,1,.9c4.09,23,17.65,43.45,44.11,48,0,0,1.19.25,1.19.73s-1.14.85-1.14.85c-22.74,6-39,20.75-43.08,43.71,0,0-.67,2.74-2,2.74s-1.69-2.84-1.69-2.84c-4.09-23-19.54-37.87-43.73-44.56,0,0-1.18-.34-1.16-.7,0-.61,1.16-.83,1.16-.83,26.05-4.27,38.94-25.92,44.42-47.1A.87.87,0,0,1,151,51Z"/><path class="cls-1" d="M74.63,103.07a.88.88,0,0,1,1,.9c4.09,23,17.65,43.45,44.11,48,0,0,1.19.25,1.19.73s-1.14.85-1.14.85c-22.74,6-39,20.75-43.08,43.71,0,0-.67,2.74-2,2.74S73,197.16,73,197.16c-4.09-23-19.54-37.87-43.72-44.56,0,0-1.19-.34-1.17-.7,0-.61,1.17-.83,1.17-.83,26-4.27,38.93-25.92,44.41-47.1A.87.87,0,0,1,74.63,103.07Z"/></svg>