<svg id="Capa_1" data-name="Capa 1" xmlns="http://www.w3.org/2000/svg" viewBox="0 0 200 200"><title>Mesa de trabajo 2 copia 3iconos</title><path d="M80.39,112.12c-6.08,0-12.16,0-18.25,0-6.75,0-10.52-2.4-12.73-7.88-2.3-5.68-.32-10.18,4-14q23.86-21,47.78-42,24.49-21.47,49.05-42.89C154,2.06,158-1.13,163.66.39c8,2.12,11.57,9.06,8.31,17.07-6.28,15.42-12.91,30.71-19.4,46.05-2.77,6.55-5.4,13.17-8.37,19.63-1.61,3.5-1.31,4.71,3,4.63,12.17-.24,24.34-.09,36.51-.08,7.5,0,11.68,2.43,13.82,7.93,2.21,5.67.9,9.93-4.93,15Q144,153.26,95.29,195.78c-5.67,5-11.3,5.51-16.63,1.86-5.07-3.48-6.35-9.14-3.29-16.34q13.62-32.12,27.5-64.12c1.67-3.82,1.38-5.3-3.18-5.12C93.27,112.3,86.83,112.12,80.39,112.12Z"/><path d="M9,175a7.5,7.5,0,0,1-3.49-14.14L77,123.36a7.5,7.5,0,0,1,7,13.28l-71.5,37.5A7.36,7.36,0,0,1,9,175Z"/><path d="M26.51,198.5a7.5,7.5,0,0,1-3.43-14.18l41-21a7.5,7.5,0,0,1,6.84,13.36l-41,21A7.44,7.44,0,0,1,26.51,198.5Z"/><path d="M14,94A7.5,7.5,0,0,1,10.5,79.87L74,46.37a7.5,7.5,0,0,1,7,13.26L17.5,93.13A7.45,7.45,0,0,1,14,94Z"/><path d="M11,133A7.5,7.5,0,0,1,7.5,118.87L35,104.37a7.5,7.5,0,0,1,7,13.26l-27.5,14.5A7.45,7.45,0,0,1,11,133Z"/><path d="M10.51,60.5A7.5,7.5,0,0,1,7,46.36l73.5-38.5a7.5,7.5,0,0,1,7,13.28L14,59.64A7.36,7.36,0,0,1,10.51,60.5Z"/></svg>