<svg id="Capa_1" data-name="Capa 1" xmlns="http://www.w3.org/2000/svg" viewBox="0 0 200 200"><defs><style>.cls-1{fill:#fb1b1b;}</style></defs><title>Mesa de trabajo 2 copia 12iconos</title><path class="cls-1" d="M100.19,0C44.84-.1-.06,45,0,100.64.06,155.51,45,200,100.22,200c54.93,0,99.89-45.06,99.78-99.92S155,.1,100.19,0Zm0,150.41c-7.4.12-12.69-5.24-12.66-12.82,0-7.8,5-12.61,12.8-12.47,7.4.12,12.28,5.15,12.27,12.62A12.31,12.31,0,0,1,100.15,150.41Zm25.67-56.93a84.46,84.46,0,0,1-8.77,5.57c-3.76,2.31-7.45,4-9.23,9.06-2.08,5.88-11.49,6.09-15.34,1-4-5.27-2.09-16.44,3.52-19.87,5-3.07,10.14-6,15.26-9,2.77-1.58,4.77-3.5,3.87-7s-3.51-4.37-6.76-4.35c-6.43,0-12.86.11-19.29,0-2.8-.06-4.3.92-5.6,3.51A9.15,9.15,0,0,1,71.6,77.09c-4.7-1.77-6.77-6-5.59-11.45,1.81-8.25,9.65-15.1,18.12-15.54,4.68-.24,9.39,0,14.08,0v0c4.34,0,8.69-.13,13,0A24.36,24.36,0,0,1,133,66.1C136.43,76.27,133.71,87.15,125.82,93.48Z"/></svg>