<svg id="Capa_1" data-name="Capa 1" xmlns="http://www.w3.org/2000/svg" viewBox="0 0 200 200"><title>Mesa de trabajo 2 copia 8iconos</title><path d="M197.48,110.63a10.32,10.32,0,0,0,2.52-6.77c0-.07,0-.13,0-.2a6.12,6.12,0,0,0,0-.74c0-.06,0-.13,0-.19s-.05-.35-.09-.53a10.35,10.35,0,0,0-10.23-8.71H44.26c-1.23,0-2.45,0-3.68-.1L39.3,90.79a13.26,13.26,0,0,1,2.21-2.29,5.79,5.79,0,0,0,.55-.43l.81-.77h0l2.71-2.56h0C50.85,79.84,56,74.9,61.21,69.93h0L95,38a14.39,14.39,0,0,0,1.39-1.32l1-.91a9.75,9.75,0,0,0-.28-14.4h0a10.87,10.87,0,0,0-14.59.25l-5.38,5.05h0C71.65,31.5,66.26,36.68,60.88,41.8l-9.7,9.1c-3.94,3.61-7.75,7.22-11.53,10.81L26.72,73.84a4.51,4.51,0,0,0-.37.39c-.65.59-1.29,1.19-2,1.78C17.11,82.65,9.9,90,2.69,96.72-.82,100-.84,107.26,2.32,110.24c5.75,5.4,11.53,10.76,17.23,16.21L21.19,128,24,130.68l.41.39c6.72,6.41,13.36,12.8,20.07,19.16l37,35.32,1.16,1.11,1,.91a8.11,8.11,0,0,0,6.3,2.2,4.65,4.65,0,0,0,1.62-.31,8.06,8.06,0,0,0,2.93-1.58l1.2-1a10.86,10.86,0,0,0,.43-16.21l-32-30L40.49,118.14a13.69,13.69,0,0,1-1.31-1.33,1.65,1.65,0,0,1,1.36-2.59l78.38,0h70.7a10.32,10.32,0,0,0,4.27-.92A8.33,8.33,0,0,0,197.48,110.63Z"/></svg>