<svg id="Capa_1" data-name="Capa 1" xmlns="http://www.w3.org/2000/svg" viewBox="0 0 200 200"><defs><style>.cls-1{fill:#fff;stroke:#f7f7f7;stroke-miterlimit:10;}</style></defs><title>Mesa de trabajo 2 copia 7iconos</title><path class="cls-1" d="M48.76,17.79c5.93,15,16.05,26.09,29.39,32.32C64.79,56.66,55,66.64,49.51,79.37,44,66.15,34,55.94,20,49.16c12.36-6,22.17-16.68,28.76-31.37M49.26,0a.88.88,0,0,0-1,.9C42.8,22.07,29.92,43.72,3.87,48c0,0-1.14.22-1.17.84,0,.36,1.17.7,1.17.7C28.05,56.21,43.5,71.12,47.59,94.08c0,0,.33,2.85,1.69,2.85s2-2.75,2-2.75c4.09-23,20.34-37.67,43.07-43.71,0,0,1.14-.37,1.14-.85s-1.19-.73-1.19-.73c-26.46-4.55-40-25-44.1-48a.89.89,0,0,0-1-.9Z"/><path class="cls-1" d="M150.52,68.8c5.93,15,16,26.1,29.39,32.32-13.35,6.56-23.11,16.54-28.63,29.27-5.57-13.23-15.54-23.44-29.52-30.22,12.37-6,22.18-16.68,28.76-31.37M151,51a.87.87,0,0,0-1,.9c-5.48,21.18-18.37,42.83-44.42,47.1,0,0-1.13.22-1.16.83,0,.36,1.16.7,1.16.7,24.19,6.69,39.64,21.6,43.73,44.56,0,0,.33,2.84,1.69,2.84s2-2.74,2-2.74c4.09-23,20.34-37.68,43.08-43.71,0,0,1.13-.38,1.14-.85s-1.19-.73-1.19-.73c-26.46-4.55-40-25-44.11-48a.88.88,0,0,0-1-.9Z"/><path class="cls-1" d="M74.13,120.86c5.93,15,16.05,26.1,29.39,32.32-13.35,6.56-23.11,16.54-28.63,29.27C69.32,169.22,59.35,159,45.37,152.23c12.37-6,22.18-16.68,28.76-31.37m.5-17.79a.87.87,0,0,0-1,.9c-5.48,21.18-18.37,42.83-44.41,47.1,0,0-1.14.22-1.17.83,0,.36,1.17.7,1.17.7,24.18,6.69,39.63,21.6,43.72,44.56,0,0,.33,2.84,1.69,2.84s2-2.74,2-2.74c4.09-23,20.34-37.68,43.08-43.71,0,0,1.13-.38,1.14-.85s-1.19-.73-1.19-.73c-26.46-4.55-40-25-44.11-48a.88.88,0,0,0-1-.9Z"/></svg>