<svg id="Capa_1" data-name="Capa 1" xmlns="http://www.w3.org/2000/svg" viewBox="0 0 200 200"><title>Mesa de trabajo 2 copia 4iconos</title><path d="M159.75,15H40.25a7.5,7.5,0,0,1,0-15h119.5a7.5,7.5,0,0,1,0,15Z"/><path d="M159.75,200H40.25a7.5,7.5,0,0,1,0-15h119.5a7.5,7.5,0,0,1,0,15Z"/><path d="M89.67,146.68v-92c-1.19-.7-1.73.42-2.36,1-3.38,3.41-6.63,7-10.1,10.29-4.5,4.31-11,4.46-14.9.56s-4-10.53.36-14.93q14.7-15,29.71-29.69c4.61-4.52,10.54-4.63,15.17-.13q15,14.64,29.7,29.69c4.42,4.53,4.32,11.47.23,15.25s-10.54,3.37-15.2-1.28c-3.6-3.59-7.15-7.23-10.75-10.83-.15-.16-.49-.14-1-.28v92.49c4-4.18,7.44-7.62,10.72-11.19,2.07-2.25,4.34-4.08,7.4-4.61,4.54-.78,8.6,1,10.58,4.53a10.57,10.57,0,0,1-1.84,12.9c-5.69,5.91-11.56,11.64-17.36,17.44-3.8,3.8-7.56,7.64-11.41,11.38-5.72,5.57-11.48,5.59-17.06,0q-14.16-14-28.2-28.2c-4.72-4.77-5.12-11.52-1.08-15.56s11.22-3.38,15.91,1.41C81.75,138.69,85.39,142.35,89.67,146.68Z"/></svg>