<svg id="Capa_1" data-name="Capa 1" xmlns="http://www.w3.org/2000/svg" viewBox="0 0 200 200"><title>Mesa de trabajo 2iconos</title><path d="M0,7.68C.07,2.41,3.57-.69,8,.15,17,1.87,26,3.8,35,5.66A18.3,18.3,0,0,1,44.32,11Q96.78,63.56,149.39,115.94c3.29,3.27,3.26,4.94-.08,8.09-8.84,8.33-17.37,17-25.81,25.76-2.6,2.69-4.11,3.07-7,.18Q63.43,96.59,10.12,43.42A12.85,12.85,0,0,1,6.87,38.8C3.41,28.4,2.43,17.45,0,7.68Z"/><path d="M23.32,156.86c-.38-.9-.81-2-1.31-3.12-2.73-6-5.41-12-8.24-18C12,132,12.59,129,15.63,126c9.08-9.07,9.47-9.29,18.47-.13,2.76,2.8,4.43,2.2,6.73-.17,4.35-4.48,8.92-8.75,13.22-13.28,2.23-2.35,3.8-2.71,6.29-.15q13.59,14,27.6,27.65c2.07,2,2.26,3.43.18,5.47-4.71,4.62-9.24,9.42-13.91,14.07-2.15,2.14-2.68,3.71-.17,6.32,9.34,9.76,9.16,10.3-.89,19.49-2.49,2.29-4.87,2.85-8,1.35-6.56-3.14-13.27-6-19.83-9.12-2.4-1.15-4-.83-5.87,1.1C33.41,184.79,27.2,190.86,21,196.9c-4.19,4.06-6.45,4.11-10.69.26-2.69-2.44-5.21-5.09-7.76-7.7-3.28-3.35-3.15-6.64.17-10,6.12-6.14,12.17-12.36,18.25-18.56C22,159.84,23.42,159,23.32,156.86Z"/><path d="M192.68,0c4.79,0,8,3.64,7.19,8-1.68,9-3.66,18-5.42,27a19.61,19.61,0,0,1-5.81,10.27c-14.21,14-28.54,28-42.68,42.1-2.52,2.51-4,2.74-6.61,0-8.81-9.13-17.84-18-26.89-26.94-2.21-2.17-3-3.55-.29-6.19,14.88-14.61,29.57-29.43,44.29-44.2a12.89,12.89,0,0,1,5.18-3.4C171.92,3.48,182.69,2.43,192.68,0Z"/><path d="M187.72,131.87c-.42,1.16-.83,2.49-1.37,3.75-1.17,2.71-2.48,5.35-3.58,8.08-2,4.94-7,10-5.6,14.62s6.92,7.89,10.67,11.73c3,3.11,6.07,6.22,9.2,9.22,3.56,3.42,3.78,6.81.25,10.34-2.57,2.58-5.17,5.14-7.74,7.72-3.53,3.55-6.92,3.28-10.36-.2-6-6-12.14-11.92-18-18.08-2.12-2.23-3.77-2.76-6.67-1.31-6.35,3.18-13,5.82-19.39,8.85-3.3,1.56-5.83,1-8.46-1.48-10-9.39-10.11-9.71-.46-19.38q21.33-21.39,42.7-42.75c5.17-5.17,7.26-5.21,12.4.15C183.77,125.69,187.21,127.61,187.72,131.87Z"/></svg>